<svg data-v-fde0c5aa="" xmlns="http://www.w3.org/2000/svg" viewBox="0 0 300 300" class="iconLeft"><!----><defs data-v-fde0c5aa=""><!----></defs><rect data-v-fde0c5aa="" fill="transparent" x="0" y="0" width="300px" height="300px" class="logo-background-square"></rect><defs data-v-fde0c5aa=""><!----></defs><g data-v-fde0c5aa="" id="734e6d05-6d81-45f5-8986-f2426b0ac57c" fill="#000000" transform="matrix(3.556152105331421,0,0,3.556152105331421,102.70972720867026,121.72442371573331)"><path d="M4.47 3.75L4.47 3.75Q6.01 3.75 6.87 4.50L6.87 4.50L6.87 4.50Q7.73 5.25 7.73 6.64L7.73 6.64L7.73 6.64Q7.73 8.04 6.87 8.79L6.87 8.79L6.87 8.79Q6.01 9.53 4.47 9.53L4.47 9.53L2.93 9.53L2.93 12.84L1.26 12.84L1.26 3.75L4.47 3.75ZM2.93 8.09L4.47 8.09L4.47 8.09Q5.24 8.09 5.63 7.69L5.63 7.69L5.63 7.69Q6.02 7.28 6.02 6.64L6.02 6.64L6.02 6.64Q6.02 6.01 5.63 5.59L5.63 5.59L5.63 5.59Q5.24 5.18 4.47 5.18L4.47 5.18L2.93 5.18L2.93 8.09ZM12.11 5.85L12.11 5.85L12.11 5.85Q12.80 5.85 13.40 6.07L13.40 6.07L13.40 6.07Q14 6.29 14.43 6.73L14.43 6.73L14.43 6.73Q15.40 7.71 15.40 9.45L15.40 9.45L15.40 9.45Q15.40 11.16 14.43 12.14L14.43 12.14L14.43 12.14Q13.57 13.03 12.11 13.03L12.11 13.03L12.11 13.03Q10.65 13.03 9.76 12.14L9.76 12.14L9.76 12.14Q8.79 11.17 8.79 9.45L8.79 9.45L8.79 9.45Q8.79 7.70 9.76 6.73L9.76 6.73L9.76 6.73Q10.64 5.85 12.11 5.85ZM13.75 9.44L13.75 9.44L13.75 9.44Q13.75 8.36 13.33 7.82L13.33 7.82L13.33 7.82Q12.91 7.28 12.16 7.28L12.16 7.28L12.16 7.28Q11.41 7.28 10.93 7.82L10.93 7.82L10.93 7.82Q10.46 8.36 10.46 9.44L10.46 9.44L10.46 9.44Q10.46 10.51 10.88 11.05L10.88 11.05L10.88 11.05Q11.31 11.59 12.05 11.59L12.05 11.59L12.05 11.59Q12.80 11.59 13.27 11.05L13.27 11.05L13.27 11.05Q13.75 10.51 13.75 9.44ZM16.74 10.77L18.28 10.77L18.28 10.77Q18.31 11.73 19.70 11.73L19.70 11.73L19.70 11.73Q20.23 11.73 20.57 11.50L20.57 11.50L20.57 11.50Q20.92 11.27 20.92 10.96L20.92 10.96L20.92 10.96Q20.92 10.65 20.71 10.49L20.71 10.49L20.71 10.49Q20.50 10.32 20.05 10.18L20.05 10.18L18.56 9.65L18.56 9.65Q16.91 9.07 16.91 7.77L16.91 7.77L16.91 7.77Q16.91 6.90 17.69 6.38L17.69 6.38L17.69 6.38Q18.47 5.85 19.77 5.85L19.77 5.85L19.77 5.85Q21.08 5.85 21.79 6.43L21.79 6.43L21.79 6.43Q22.50 7.00 22.53 7.87L22.53 7.87L20.97 7.87L20.97 7.87Q20.94 7.53 20.65 7.34L20.65 7.34L20.65 7.34Q20.36 7.14 19.81 7.14L19.81 7.14L19.81 7.14Q19.26 7.14 18.96 7.36L18.96 7.36L18.96 7.36Q18.66 7.57 18.66 7.85L18.66 7.85L18.66 7.85Q18.66 8.34 19.49 8.58L19.49 8.58L21.10 9.18L21.10 9.18Q21.90 9.45 22.32 9.86L22.32 9.86L22.32 9.86Q22.75 10.28 22.75 10.93L22.75 10.93L22.75 10.93Q22.75 11.77 21.95 12.39L21.95 12.39L21.95 12.39Q21.13 13.03 19.77 13.03L19.77 13.03L19.77 13.03Q18.41 13.03 17.58 12.44L17.58 12.44L17.58 12.44Q16.76 11.84 16.74 10.77L16.74 10.77ZM28.34 11.51L28.57 12.67L28.57 12.67Q27.65 13.03 27.12 13.03L27.12 13.03L27.12 13.03Q26.59 13.03 26.19 12.91L26.19 12.91L26.19 12.91Q25.79 12.78 25.48 12.53L25.48 12.53L25.48 12.53Q24.84 11.96 24.84 10.95L24.84 10.95L24.84 7.14L23.88 7.14L23.88 6.03L24.84 6.03L24.84 4.24L26.49 4.24L26.49 6.03L28.34 6.03L28.34 7.14L26.49 7.14L26.49 10.89L26.49 10.89Q26.49 11.73 27.29 11.73L27.29 11.73L27.29 11.73Q27.69 11.73 28.34 11.51L28.34 11.51ZM30.41 12.84L30.41 6.02L32.06 6.02L32.06 12.84L30.41 12.84ZM30.21 3.84L30.21 3.84L30.21 3.84Q30.21 3.39 30.48 3.13L30.48 3.13L30.48 3.13Q30.74 2.87 31.23 2.87L31.23 2.87L31.23 2.87Q31.71 2.87 31.98 3.13L31.98 3.13L31.98 3.13Q32.26 3.39 32.26 3.84L32.26 3.84L32.26 3.84Q32.26 4.28 31.98 4.54L31.98 4.54L31.98 4.54Q31.71 4.80 31.23 4.80L31.23 4.80L31.23 4.80Q30.74 4.80 30.48 4.54L30.48 4.54L30.48 4.54Q30.21 4.28 30.21 3.84ZM38.46 11.51L38.70 12.67L38.70 12.67Q37.77 13.03 37.24 13.03L37.24 13.03L37.24 13.03Q36.71 13.03 36.31 12.91L36.31 12.91L36.31 12.91Q35.91 12.78 35.60 12.53L35.60 12.53L35.60 12.53Q34.96 11.96 34.96 10.95L34.96 10.95L34.96 7.14L34.01 7.14L34.01 6.03L34.96 6.03L34.96 4.24L36.61 4.24L36.61 6.03L38.46 6.03L38.46 7.14L36.61 7.14L36.61 10.89L36.61 10.89Q36.61 11.73 37.41 11.73L37.41 11.73L37.41 11.73Q37.81 11.73 38.46 11.51L38.46 11.51ZM43.99 11.51L44.23 12.67L44.23 12.67Q43.30 13.03 42.77 13.03L42.77 13.03L42.77 13.03Q42.24 13.03 41.84 12.91L41.84 12.91L41.84 12.91Q41.44 12.78 41.13 12.53L41.13 12.53L41.13 12.53Q40.49 11.96 40.49 10.95L40.49 10.95L40.49 7.14L39.54 7.14L39.54 6.03L40.49 6.03L40.49 4.24L42.14 4.24L42.14 6.03L43.99 6.03L43.99 7.14L42.14 7.14L42.14 10.89L42.14 10.89Q42.14 11.73 42.94 11.73L42.94 11.73L42.94 11.73Q43.34 11.73 43.99 11.51L43.99 11.51Z"></path></g><defs data-v-fde0c5aa=""><linearGradient data-v-fde0c5aa="" gradientTransform="rotate(25)" id="ad6ffdc2-1af8-47a1-a8d1-0cf6a1b0e733" x1="0%" y1="0%" x2="100%" y2="0%"><stop data-v-fde0c5aa="" offset="0%" stop-color="#422F75" stop-opacity="1"></stop><stop data-v-fde0c5aa="" offset="100%" stop-color="#C0B3EC" stop-opacity="1"></stop></linearGradient></defs><g data-v-fde0c5aa="" id="39379e1e-97e3-4501-a99a-e23aadce8d1d" stroke="none" fill="url(#ad6ffdc2-1af8-47a1-a8d1-0cf6a1b0e733)" transform="matrix(1.6936434507369995,0,0,1.6936434507369995,40,122.90170452638996)"><path d="M15.965 16.258l.707-.707 10.39 10.39-.707.707z"></path><path d="M4.935 26.357L26.018 5.274l.707.707L5.642 27.065z"></path><path d="M31 1v4.194h-4.194V1H31m1-1h-6.194v6.194H32V0zM31 26.806V31h-4.194v-4.194H31m1-1h-6.194V32H32v-6.194zM5.194 26.806V31H1v-4.194h4.194m1-1H0V32h6.194v-6.194z"></path></g><!----></svg>