<?xml version="1.0" encoding="utf-8"?>
<!-- Generator: Adobe Illustrator 25.1.0, SVG Export Plug-In . SVG Version: 6.00 Build 0)  -->
<svg version="1.1" id="Layer_1" xmlns="http://www.w3.org/2000/svg" xmlns:xlink="http://www.w3.org/1999/xlink" x="0px" y="0px"
	 viewBox="0 0 54.2 54.2" style="enable-background:new 0 0 54.2 54.2;" xml:space="preserve">
<style type="text/css">
	.st0{fill:url(#SVGID_1_);}
	.st1{fill:url(#SVGID_2_);}
	.st2{fill:url(#SVGID_3_);}
</style>
<g id="bb44f1ba-06fe-4ab8-85ca-24d5f94bd97d" transform="matrix(1.6936434507369995,0,0,1.6936434507369995,40,122.90170452638996)">
	
		<linearGradient id="SVGID_1_" gradientUnits="userSpaceOnUse" x1="-1974.8887" y1="264.0756" x2="-1973.8887" y2="264.0756" gradientTransform="matrix(82.7504 38.587 -38.587 82.7504 173603.8906 54298.0117)">
		<stop  offset="0" style="stop-color:#422F75"/>
		<stop  offset="1" style="stop-color:#C0B3EC"/>
	</linearGradient>
	<path class="st0" d="M-7.6-56.3l0.7-0.7L3.5-46.6l-0.7,0.7L-7.6-56.3z"/>
	
		<linearGradient id="SVGID_2_" gradientUnits="userSpaceOnUse" x1="-1993.6587" y1="262.8174" x2="-1992.6587" y2="262.8174" gradientTransform="matrix(162.4878 75.7728 -75.7692 162.4956 343837.75 108295.8594)">
		<stop  offset="0" style="stop-color:#422F75"/>
		<stop  offset="1" style="stop-color:#C0B3EC"/>
	</linearGradient>
	<path class="st1" d="M-18.7-46.2L2.4-67.3l0.7,0.7L-18-45.5L-18.7-46.2z"/>
	
		<linearGradient id="SVGID_3_" gradientUnits="userSpaceOnUse" x1="-1999.8735" y1="262.4009" x2="-1998.8735" y2="262.4009" gradientTransform="matrix(238.6237 111.2724 -111.2724 238.6237 506388.3125 159850.0312)">
		<stop  offset="0" style="stop-color:#422F75"/>
		<stop  offset="1" style="stop-color:#C0B3EC"/>
	</linearGradient>
	<path class="st2" d="M7.4-71.6v4.2H3.2v-4.2H7.4 M8.4-72.6H2.2v6.2h6.2V-72.6z M7.4-45.8v4.2H3.2v-4.2H7.4 M8.4-46.8H2.2v6.2h6.2
		V-46.8z M-18.4-45.8v4.2h-4.2v-4.2H-18.4 M-17.4-46.8h-6.2v6.2h6.2C-17.4-40.6-17.4-46.8-17.4-46.8z"/>
</g>
</svg>
