<?xml version="1.0" encoding="utf-8"?>
<!-- Generator: Adobe Illustrator 25.1.0, SVG Export Plug-In . SVG Version: 6.00 Build 0)  -->
<svg version="1.1" id="Layer_1" xmlns="http://www.w3.org/2000/svg" xmlns:xlink="http://www.w3.org/1999/xlink" x="0px" y="0px"
	 viewBox="0 0 227.4 58.3" style="enable-background:new 0 0 227.4 58.3;" xml:space="preserve">
<style type="text/css">
	.st0{fill:#FFFFFF;}
	.st1{fill:url(#SVGID_1_);}
	.st2{fill:url(#SVGID_2_);}
	.st3{fill:url(#SVGID_3_);}
</style>
<g id="_x34_91c7c20-58b7-4150-9784-1b56836f9773" transform="matrix(3.556152105331421,0,0,3.556152105331421,102.70972720867026,121.72442371573331)">
	<path class="st0" d="M-6-30.5L-6-30.5c1,0,1.8,0.2,2.4,0.7l0,0l0,0c0.5,0.5,0.8,1.2,0.8,2.1l0,0l0,0c0,0.9-0.3,1.6-0.9,2.1l0,0l0,0
		C-4.2-25-5-24.8-6-24.8l0,0h-1.6v3.3h-1.6v-9H-6z M-7.6-26.2h1.5l0,0c0.6,0,1-0.1,1.2-0.4l0,0l0,0c0.3-0.3,0.4-0.6,0.4-1.1l0,0l0,0
		c0-0.4-0.1-0.8-0.4-1l0,0l0,0C-5.1-29-5.5-29.1-6-29.1l0,0h-1.6V-26.2z M1.6-28.4L1.6-28.4L1.6-28.4c0.5,0,0.9,0.1,1.3,0.2l0,0l0,0
		c0.4,0.1,0.7,0.4,1,0.7l0,0l0,0c0.6,0.7,1,1.6,1,2.7l0,0l0,0c0,1.1-0.3,2-1,2.7l0,0l0,0c-0.6,0.6-1.3,0.9-2.3,0.9l0,0l0,0
		c-1,0-1.8-0.3-2.4-0.9l0,0l0,0c-0.6-0.6-1-1.5-1-2.7l0,0l0,0c0-1.2,0.3-2.1,1-2.7l0,0l0,0C-0.2-28.2,0.6-28.4,1.6-28.4z M3.3-24.9
		L3.3-24.9L3.3-24.9c0-0.7-0.1-1.3-0.4-1.6l0,0l0,0C2.6-26.9,2.2-27,1.7-27l0,0l0,0c-0.5,0-0.9,0.2-1.2,0.5l0,0l0,0
		C0.2-26.1,0-25.6,0-24.9l0,0l0,0c0,0.7,0.1,1.2,0.4,1.6l0,0l0,0c0.3,0.4,0.7,0.5,1.2,0.5l0,0l0,0c0.5,0,0.9-0.2,1.2-0.5l0,0l0,0
		C3.1-23.6,3.3-24.1,3.3-24.9z M6.2-23.5h1.5l0,0c0,0.6,0.5,1,1.4,1l0,0l0,0c0.4,0,0.6-0.1,0.9-0.2l0,0l0,0c0.2-0.2,0.4-0.3,0.4-0.5
		l0,0l0,0c0-0.2-0.1-0.4-0.2-0.5l0,0l0,0c-0.1-0.1-0.4-0.2-0.7-0.3l0,0L8-24.5l0,0c-1.1-0.4-1.6-1-1.6-1.9l0,0l0,0
		c0-0.6,0.3-1,0.8-1.4l0,0l0,0c0.5-0.4,1.2-0.5,2.1-0.5l0,0l0,0c0.9,0,1.5,0.2,2,0.6l0,0l0,0c0.5,0.4,0.7,0.9,0.7,1.4l0,0h-1.5l0,0
		c0-0.2-0.1-0.4-0.3-0.5l0,0l0,0C10-26.9,9.7-27,9.4-27l0,0l0,0c-0.4,0-0.6,0.1-0.9,0.2l0,0l0,0c-0.2,0.1-0.3,0.3-0.3,0.5l0,0l0,0
		c0,0.3,0.3,0.6,0.8,0.7l0,0l1.6,0.6l0,0c0.5,0.2,0.9,0.4,1.2,0.7l0,0l0,0c0.3,0.3,0.4,0.6,0.4,1.1l0,0l0,0c0,0.6-0.3,1-0.8,1.5l0,0
		l0,0c-0.5,0.4-1.3,0.6-2.2,0.6l0,0l0,0c-0.9,0-1.6-0.2-2.2-0.6l0,0l0,0C6.5-22.3,6.3-22.8,6.2-23.5L6.2-23.5z M17.8-22.8l0.2,1.2
		l0,0c-0.5,0.2-1,0.3-1.4,0.3l0,0l0,0c-0.4,0-0.7,0-0.9-0.1l0,0l0,0c-0.3-0.1-0.5-0.2-0.7-0.4l0,0l0,0c-0.4-0.4-0.6-0.9-0.6-1.6l0,0
		v-3.8h-1v-1.1h1v-1.8H16v1.8h1.9v1.1H16v3.8l0,0c0,0.6,0.3,0.8,0.8,0.8l0,0l0,0C17.1-22.6,17.4-22.6,17.8-22.8L17.8-22.8z
		 M19.9-21.5v-6.8h1.6v6.8C21.5-21.5,19.9-21.5,19.9-21.5z M19.7-30.5L19.7-30.5L19.7-30.5c0-0.3,0.1-0.5,0.3-0.7l0,0l0,0
		c0.2-0.2,0.4-0.3,0.8-0.3l0,0l0,0c0.3,0,0.6,0.1,0.8,0.3l0,0l0,0c0.2,0.2,0.3,0.4,0.3,0.7l0,0l0,0c0,0.3-0.1,0.5-0.3,0.7l0,0l0,0
		c-0.2,0.2-0.4,0.3-0.8,0.3l0,0l0,0c-0.3,0-0.6-0.1-0.8-0.3l0,0l0,0C19.8-29.9,19.7-30.2,19.7-30.5z M28-22.8l0.2,1.2l0,0
		c-0.6,0.2-1.1,0.4-1.5,0.4l0,0l0,0c-0.4,0-0.7,0-0.9-0.1l0,0l0,0c-0.3-0.1-0.5-0.2-0.7-0.4l0,0l0,0c-0.4-0.4-0.6-0.9-0.6-1.6l0,0
		v-3.9h-1v-1.1h1v-1.8h1.7v1.8H28v1.1h-1.8v3.8l0,0c0,0.6,0.3,0.8,0.8,0.8l0,0l0,0C27.2-22.6,27.5-22.6,28-22.8L28-22.8z M33.5-22.8
		l0.2,1.2l0,0c-0.6,0.2-1.1,0.4-1.5,0.4l0,0l0,0c-0.4,0-0.7,0-0.9-0.1l0,0l0,0c-0.3-0.1-0.5-0.2-0.7-0.4l0,0l0,0
		c-0.4-0.4-0.6-0.9-0.6-1.6l0,0v-3.9h-1v-1.1h1v-1.8h1.6v1.8h1.9v1.1h-1.9v3.8l0,0c0,0.6,0.3,0.8,0.8,0.8l0,0l0,0
		C32.7-22.6,33.1-22.6,33.5-22.8L33.5-22.8z"/>
</g>
<g id="bb44f1ba-06fe-4ab8-85ca-24d5f94bd97d" transform="matrix(1.6936434507369995,0,0,1.6936434507369995,40,122.90170452638996)">
	
		<linearGradient id="SVGID_1_" gradientUnits="userSpaceOnUse" x1="-1960.6975" y1="263.0085" x2="-1959.6975" y2="263.0085" gradientTransform="matrix(82.7504 38.587 -38.587 82.7504 172390.0312 53839.3008)">
		<stop  offset="0" style="stop-color:#422F75"/>
		<stop  offset="1" style="stop-color:#C0B3EC"/>
	</linearGradient>
	<path class="st1" d="M-6-55.7l0.7-0.7L5.1-46l-0.7,0.7L-6-55.7z"/>
	
		<linearGradient id="SVGID_2_" gradientUnits="userSpaceOnUse" x1="-1979.3357" y1="261.755" x2="-1978.3357" y2="261.755" gradientTransform="matrix(162.4878 75.7728 -75.7692 162.4956 341431.5938 107383.7656)">
		<stop  offset="0" style="stop-color:#422F75"/>
		<stop  offset="1" style="stop-color:#C0B3EC"/>
	</linearGradient>
	<path class="st2" d="M-17.1-45.6L4-66.7L4.7-66l-21.1,21.1L-17.1-45.6z"/>
	
		<linearGradient id="SVGID_3_" gradientUnits="userSpaceOnUse" x1="-1985.5068" y1="261.3401" x2="-1984.5068" y2="261.3401" gradientTransform="matrix(238.6237 111.2724 -111.2724 238.6237 502843.6562 158505.1094)">
		<stop  offset="0" style="stop-color:#422F75"/>
		<stop  offset="1" style="stop-color:#C0B3EC"/>
	</linearGradient>
	<path class="st3" d="M9-71v4.2H4.8V-71H9 M10-72H3.8v6.2H10V-72z M9-45.2v4.2H4.8v-4.2H9 M10-46.2H3.8v6.2H10V-46.2z M-16.8-45.2
		v4.2H-21v-4.2H-16.8 M-15.8-46.2H-22v6.2h6.2V-46.2z"/>
</g>
<rect x="70" y="52.4" class="st0" width="97.1" height="1.7"/>
</svg>
