<?xml version="1.0" encoding="utf-8"?>
<!-- Generator: Adobe Illustrator 25.0.1, SVG Export Plug-In . SVG Version: 6.00 Build 0)  -->
<svg version="1.1" id="Layer_1" xmlns="http://www.w3.org/2000/svg" xmlns:xlink="http://www.w3.org/1999/xlink" x="0px" y="0px"
	 viewBox="0 0 300 96.4" style="enable-background:new 0 0 300 96.4;" xml:space="preserve">
<style type="text/css">
	.st0{fill:none;}
	.st1{fill:url(#SVGID_1_);}
	.st2{fill:url(#SVGID_2_);}
	.st3{fill:url(#SVGID_3_);}
</style>
<rect y="-107.3" class="st0" width="300" height="300"/>
<g id="_x34_91c7c20-58b7-4150-9784-1b56836f9773" transform="matrix(3.556152105331421,0,0,3.556152105331421,102.70972720867026,121.72442371573331)">
	<path d="M4.5-26.4L4.5-26.4c1,0,1.8,0.2,2.4,0.7l0,0l0,0c0.5,0.5,0.8,1.2,0.8,2.1l0,0l0,0c0,0.9-0.3,1.6-0.9,2.1l0,0l0,0
		c-0.5,0.6-1.3,0.8-2.3,0.8l0,0H2.9v3.3H1.3v-9H4.5z M2.9-22.1h1.5l0,0c0.6,0,1-0.1,1.2-0.4l0,0l0,0C5.9-22.8,6-23.1,6-23.6l0,0l0,0
		c0-0.4-0.1-0.8-0.4-1l0,0l0,0C5.4-24.9,5-25,4.5-25l0,0H2.9V-22.1z M12.1-24.3L12.1-24.3L12.1-24.3c0.5,0,0.9,0.1,1.3,0.2l0,0l0,0
		c0.4,0.1,0.7,0.4,1,0.7l0,0l0,0c0.6,0.7,1,1.6,1,2.7l0,0l0,0c0,1.1-0.3,2-1,2.7l0,0l0,0c-0.6,0.6-1.3,0.9-2.3,0.9l0,0l0,0
		c-1,0-1.8-0.3-2.4-0.9l0,0l0,0c-0.6-0.6-1-1.5-1-2.7l0,0l0,0c0-1.2,0.3-2.1,1-2.7l0,0l0,0C10.3-24.1,11.1-24.3,12.1-24.3z
		 M13.8-20.8L13.8-20.8L13.8-20.8c0-0.7-0.1-1.3-0.4-1.6l0,0l0,0c-0.3-0.4-0.7-0.5-1.2-0.5l0,0l0,0c-0.5,0-0.9,0.2-1.2,0.5l0,0l0,0
		c-0.3,0.4-0.5,0.9-0.5,1.6l0,0l0,0c0,0.7,0.1,1.2,0.4,1.6l0,0l0,0c0.3,0.4,0.7,0.5,1.2,0.5l0,0l0,0c0.5,0,0.9-0.2,1.2-0.5l0,0l0,0
		C13.6-19.5,13.8-20,13.8-20.8z M16.7-19.4h1.5l0,0c0,0.6,0.5,1,1.4,1l0,0l0,0c0.4,0,0.6-0.1,0.9-0.2l0,0l0,0
		c0.2-0.2,0.4-0.3,0.4-0.5l0,0l0,0c0-0.2-0.1-0.4-0.2-0.5l0,0l0,0c-0.1-0.1-0.4-0.2-0.7-0.3l0,0l-1.5-0.5l0,0
		c-1.1-0.4-1.6-1-1.6-1.9l0,0l0,0c0-0.6,0.3-1,0.8-1.4l0,0l0,0c0.5-0.4,1.2-0.5,2.1-0.5l0,0l0,0c0.9,0,1.5,0.2,2,0.6l0,0l0,0
		c0.5,0.4,0.7,0.9,0.7,1.4l0,0H21l0,0c0-0.2-0.1-0.4-0.3-0.5l0,0l0,0c-0.2-0.1-0.5-0.2-0.8-0.2l0,0l0,0c-0.4,0-0.6,0.1-0.9,0.2l0,0
		l0,0c-0.2,0.1-0.3,0.3-0.3,0.5l0,0l0,0c0,0.3,0.3,0.6,0.8,0.7l0,0l1.6,0.6l0,0c0.5,0.2,0.9,0.4,1.2,0.7l0,0l0,0
		c0.3,0.3,0.4,0.6,0.4,1.1l0,0l0,0c0,0.6-0.3,1-0.8,1.5l0,0l0,0c-0.5,0.4-1.3,0.6-2.2,0.6l0,0l0,0c-0.9,0-1.6-0.2-2.2-0.6l0,0l0,0
		C17-18.2,16.8-18.7,16.7-19.4L16.7-19.4z M28.3-18.7l0.2,1.2l0,0c-0.5,0.2-1,0.3-1.4,0.3l0,0l0,0c-0.4,0-0.7,0-0.9-0.1l0,0l0,0
		c-0.3-0.1-0.5-0.2-0.7-0.4l0,0l0,0c-0.4-0.4-0.6-0.9-0.6-1.6l0,0v-3.8h-1v-1.1h1V-26h1.6v1.8h1.9v1.1h-1.9v3.8l0,0
		c0,0.6,0.3,0.8,0.8,0.8l0,0l0,0C27.6-18.5,27.9-18.5,28.3-18.7L28.3-18.7z M30.4-17.4v-6.8H32v6.8H30.4z M30.2-26.4L30.2-26.4
		L30.2-26.4c0-0.3,0.1-0.5,0.3-0.7l0,0l0,0c0.2-0.2,0.4-0.3,0.8-0.3l0,0l0,0c0.3,0,0.6,0.1,0.8,0.3l0,0l0,0c0.2,0.2,0.3,0.4,0.3,0.7
		l0,0l0,0c0,0.3-0.1,0.5-0.3,0.7l0,0l0,0c-0.2,0.2-0.4,0.3-0.8,0.3l0,0l0,0c-0.3,0-0.6-0.1-0.8-0.3l0,0l0,0
		C30.3-25.8,30.2-26.1,30.2-26.4z M38.5-18.7l0.2,1.2l0,0c-0.6,0.2-1.1,0.4-1.5,0.4l0,0l0,0c-0.4,0-0.7,0-0.9-0.1l0,0l0,0
		c-0.3-0.1-0.5-0.2-0.7-0.4l0,0l0,0C35.2-18,35-18.5,35-19.2l0,0v-3.9h-1v-1.1h1V-26h1.7v1.8h1.8v1.1h-1.8v3.8l0,0
		c0,0.6,0.3,0.8,0.8,0.8l0,0l0,0C37.7-18.5,38-18.5,38.5-18.7L38.5-18.7z M44-18.7l0.2,1.2l0,0c-0.6,0.2-1.1,0.4-1.5,0.4l0,0l0,0
		c-0.4,0-0.7,0-0.9-0.1l0,0l0,0c-0.3-0.1-0.5-0.2-0.7-0.4l0,0l0,0c-0.4-0.4-0.6-0.9-0.6-1.6l0,0v-3.9h-1v-1.1h1V-26h1.6v1.8H44v1.1
		h-1.9v3.8l0,0c0,0.6,0.3,0.8,0.8,0.8l0,0l0,0C43.2-18.5,43.6-18.5,44-18.7L44-18.7z"/>
</g>
<g id="bb44f1ba-06fe-4ab8-85ca-24d5f94bd97d" transform="matrix(1.6936434507369995,0,0,1.6936434507369995,40,122.90170452638996)">
	
		<linearGradient id="SVGID_1_" gradientUnits="userSpaceOnUse" x1="-763.9675" y1="74.5293" x2="-762.9675" y2="74.5293" gradientTransform="matrix(28.8487 13.4523 -13.4523 28.8487 23056.8418 8081.7017)">
		<stop  offset="0" style="stop-color:#422F75"/>
		<stop  offset="1" style="stop-color:#C0B3EC"/>
	</linearGradient>
	<path class="st1" d="M16-47l0.7-0.7l10.4,10.4l-0.7,0.7L16-47z"/>
	
		<linearGradient id="SVGID_2_" gradientUnits="userSpaceOnUse" x1="-780.3089" y1="74.3354" x2="-779.3089" y2="74.3354" gradientTransform="matrix(56.647 26.4161 -26.4149 56.6497 46168.3828 16348.4033)">
		<stop  offset="0" style="stop-color:#422F75"/>
		<stop  offset="1" style="stop-color:#C0B3EC"/>
	</linearGradient>
	<path class="st2" d="M4.9-36.9L26-58l0.7,0.7L5.6-36.2L4.9-36.9z"/>
	
		<linearGradient id="SVGID_3_" gradientUnits="userSpaceOnUse" x1="-785.7196" y1="74.271" x2="-784.7196" y2="74.271" gradientTransform="matrix(83.1897 38.7921 -38.7921 83.1897 68241.6562 24244.7812)">
		<stop  offset="0" style="stop-color:#422F75"/>
		<stop  offset="1" style="stop-color:#C0B3EC"/>
	</linearGradient>
	<path class="st3" d="M31-62.3v4.2h-4.2v-4.2H31 M32-63.3h-6.2v6.2H32V-63.3z M31-36.5v4.2h-4.2v-4.2H31 M32-37.5h-6.2v6.2H32V-37.5
		z M5.2-36.5v4.2H1v-4.2H5.2 M6.2-37.5H0v6.2h6.2V-37.5z"/>
</g>
<rect x="107.2" y="67.1" width="97.1" height="1.7"/>
</svg>
